<?xml version="1.0" encoding="UTF-8"?>
<svg id="Layer_2" data-name="Layer 2" xmlns="http://www.w3.org/2000/svg" viewBox="0 0 775.48 134.6">
  <defs>
    <style>
      .cls-1 {
        fill: #00317a;
      }

      .cls-2 {
        fill: none;
        stroke: #000;
        stroke-miterlimit: 10;
        stroke-width: 2px;
      }
    </style>
  </defs>
  <g id="svg2">
    <g id="g326">
      <path id="path328" class="cls-1" d="m23.65,34.09c8.12-11.21,22.07-18.17,36.4-18.17s28.29,6.96,36.4,18.17c4.89,6.75,7.1,14.34,8.47,21.69h11.16V7.48c0-4.13-3.35-7.48-7.48-7.48H11.51c-4.14,0-7.48,3.35-7.48,7.48v48.3h11.16c1.36-7.36,3.57-14.94,8.46-21.69"/>
    </g>
    <g>
      <path d="m141.47,75.48V26.82h11.19v48.65h-11.19Zm10.01-11.12l-.56-13,23.28-24.54h12.51l-20.92,22.59-6.39,6.67-7.92,8.27Zm23.28,11.12l-17.31-21.13,7.37-8.06,23.15,29.19h-13.21Z"/>
      <path d="m204.09,66.44h26.48v9.04h-37.67V26.82h36.77v9.04h-25.58v30.58Zm-.83-20.09h23.42v8.83h-23.42v-8.83Z"/>
      <path d="m249.61,75.48v-39.48h-15.57v-9.17h42.4v9.17h-15.57v39.48h-11.26Z"/>
      <path d="m273.66,75.48l21.62-48.65h11.12l21.82,48.65h-11.82l-17.86-42.95h4.52l-17.86,42.95h-11.54Zm10.91-10.43l2.85-8.55h25.16l2.92,8.55h-30.93Z"/>
      <path d="m333.3,75.48V26.82h9.31l20.71,34.34h-4.93l20.3-34.34h9.38v48.65h-10.5l-.14-32.46h2.09l-16.4,27.25h-5l-16.61-27.25h2.29v32.46h-10.5Z"/>
      <path d="m399.67,75.48V26.82h11.33v48.65h-11.33Z"/>
      <path d="m422.47,75.48V26.82h9.31l28.71,35.03h-4.52V26.82h11.12v48.65h-9.31l-28.71-35.03h4.52v35.03h-11.12Z"/>
      <path d="m489.82,66.44h26.48v9.04h-37.67V26.82h36.77v9.04h-25.58v30.58Zm-.83-20.09h23.42v8.83h-23.42v-8.83Z"/>
      <path d="m568.22,75.89c-3.66,0-7.04-.61-10.15-1.84-3.1-1.23-5.79-2.95-8.06-5.18-2.27-2.22-4.04-4.84-5.32-7.85-1.27-3.01-1.91-6.3-1.91-9.87s.64-6.86,1.91-9.87c1.27-3.01,3.06-5.63,5.35-7.85,2.29-2.22,4.99-3.95,8.1-5.18,3.1-1.23,6.49-1.84,10.15-1.84s6.83.59,9.94,1.77c3.1,1.18,5.72,2.95,7.85,5.32l-3.27,3.27c-1.99-2.04-4.19-3.51-6.6-4.41-2.41-.9-5-1.35-7.78-1.35-2.92,0-5.63.5-8.13,1.49-2.5,1-4.68,2.41-6.53,4.24-1.85,1.83-3.3,3.96-4.34,6.39s-1.56,5.11-1.56,8.03.52,5.6,1.56,8.03,2.49,4.56,4.34,6.39c1.85,1.83,4.03,3.24,6.53,4.24,2.5,1,5.21,1.5,8.13,1.5s5.38-.46,7.78-1.39c2.41-.93,4.61-2.41,6.6-4.45l3.27,3.27c-2.13,2.36-4.75,4.15-7.85,5.35s-6.44,1.81-10.01,1.81Z"/>
      <path d="m597.07,75.48V26.82h5.14v44.21h27.25v4.45h-32.39Z"/>
      <path d="m638,75.48V26.82h5.14v48.65h-5.14Z"/>
      <path d="m658.99,75.48V26.82h4.24l33.57,42.26h-2.22V26.82h5.07v48.65h-4.24l-33.5-42.26h2.22v42.26h-5.14Z"/>
      <path d="m715.5,75.48V26.82h5.14v48.65h-5.14Z"/>
      <path d="m757.62,75.89c-3.66,0-7.04-.61-10.15-1.84-3.1-1.23-5.79-2.95-8.06-5.18-2.27-2.22-4.04-4.84-5.32-7.85-1.27-3.01-1.91-6.3-1.91-9.87s.64-6.86,1.91-9.87c1.27-3.01,3.06-5.63,5.35-7.85,2.29-2.22,4.99-3.95,8.1-5.18,3.1-1.23,6.49-1.84,10.15-1.84s6.83.59,9.94,1.77c3.1,1.18,5.72,2.95,7.85,5.32l-3.27,3.27c-1.99-2.04-4.19-3.51-6.6-4.41-2.41-.9-5-1.35-7.78-1.35-2.92,0-5.63.5-8.13,1.49-2.5,1-4.68,2.41-6.53,4.24-1.85,1.83-3.3,3.96-4.34,6.39s-1.56,5.11-1.56,8.03.52,5.6,1.56,8.03,2.49,4.56,4.34,6.39c1.85,1.83,4.03,3.24,6.53,4.24,2.5,1,5.21,1.5,8.13,1.5s5.38-.46,7.78-1.39c2.41-.93,4.61-2.41,6.6-4.45l3.27,3.27c-2.13,2.36-4.75,4.15-7.85,5.35s-6.44,1.81-10.01,1.81Z"/>
    </g>
    <g>
      <path d="m299.07,119.32c-1.64,0-3.16-.27-4.56-.83-1.4-.55-2.62-1.33-3.65-2.34-1.03-1.01-1.83-2.18-2.4-3.52-.57-1.34-.86-2.81-.86-4.41s.29-3.07.86-4.41c.57-1.34,1.37-2.51,2.4-3.52,1.03-1.01,2.24-1.79,3.63-2.34,1.39-.55,2.92-.83,4.58-.83s3.16.28,4.55.83c1.39.55,2.6,1.32,3.63,2.32s1.83,2.17,2.4,3.52.86,2.82.86,4.42-.29,3.07-.86,4.42c-.57,1.35-1.37,2.52-2.4,3.52-1.03,1-2.24,1.77-3.63,2.32-1.39.55-2.91.83-4.55.83Zm0-2.06c1.31,0,2.52-.22,3.63-.67,1.11-.45,2.08-1.08,2.9-1.9.82-.82,1.46-1.78,1.92-2.87.46-1.09.69-2.29.69-3.6s-.23-2.51-.69-3.6c-.46-1.09-1.1-2.04-1.92-2.87-.82-.82-1.79-1.45-2.9-1.9-1.11-.45-2.32-.67-3.63-.67s-2.52.22-3.64.67c-1.12.45-2.1,1.08-2.93,1.9-.83.82-1.48,1.78-1.93,2.87-.46,1.09-.69,2.29-.69,3.6s.23,2.48.69,3.58c.46,1.1,1.1,2.06,1.93,2.88.83.82,1.81,1.45,2.93,1.9,1.12.45,2.34.67,3.64.67Z"/>
      <path d="m321.1,119.14h-2.31v-21.81h14.95v1.99h-12.65v19.81Zm-.25-11.25h11.53v1.99h-11.53v-1.99Z"/>
      <path d="m352.9,119.14v-21.81h8.16c1.85,0,3.44.3,4.77.89,1.33.59,2.35,1.44,3.07,2.55.72,1.11,1.07,2.46,1.07,4.03s-.36,2.86-1.07,3.97c-.72,1.11-1.74,1.97-3.07,2.57-1.33.6-2.92.9-4.77.9h-6.88l1.03-1.09v7.97h-2.31Zm2.31-7.79l-1.03-1.12h6.82c2.18,0,3.84-.47,4.97-1.42,1.13-.94,1.7-2.28,1.7-4s-.57-3.09-1.7-4.05-2.79-1.43-4.97-1.43h-6.82l1.03-1.09v13.11Z"/>
      <path d="m380.38,119.14h-2.31v-21.81h2.31v21.81Zm13.86-10.06h-14.11v-2.03h14.11v2.03Zm-.22-11.74h2.27v21.81h-2.27v-21.81Z"/>
      <path d="m406.51,119.14v-21.81h2.3v21.81h-2.3Z"/>
      <path d="m419.04,119.14v-21.81h2.3v19.81h12.21v1.99h-14.52Z"/>
      <path d="m437.01,119.14l9.97-21.81h2.27l9.97,21.81h-2.43l-9.16-20.47h.93l-9.16,20.47h-2.4Zm3.92-5.83l.69-1.87h12.68l.69,1.87h-14.05Z"/>
      <path d="m465.95,119.14v-21.81h8.88c2.33,0,4.37.46,6.12,1.39,1.75.92,3.12,2.21,4.1,3.85s1.46,3.53,1.46,5.67-.49,4.03-1.46,5.67-2.34,2.92-4.1,3.85c-1.76.92-3.8,1.39-6.12,1.39h-8.88Zm2.31-1.99h6.45c1.93,0,3.61-.38,5.03-1.14,1.42-.76,2.53-1.81,3.32-3.15.79-1.34,1.18-2.88,1.18-4.63s-.39-3.31-1.18-4.64c-.79-1.33-1.9-2.37-3.32-3.13-1.42-.76-3.1-1.14-5.03-1.14h-6.45v17.82Z"/>
      <path d="m497.1,117.14h13.12v1.99h-15.42v-21.81h14.95v1.99h-12.65v17.82Zm-.25-10.06h11.53v1.96h-11.53v-1.96Z"/>
      <path d="m518.75,119.14v-21.81h2.31v19.81h12.21v1.99h-14.52Z"/>
      <path d="m540.21,119.14v-21.81h8.16c1.85,0,3.44.3,4.77.89,1.33.59,2.35,1.44,3.07,2.55.72,1.11,1.07,2.46,1.07,4.03s-.36,2.86-1.07,3.97c-.72,1.11-1.74,1.97-3.07,2.57-1.33.6-2.92.9-4.77.9h-6.88l1.03-1.09v7.97h-2.31Zm2.31-7.79l-1.03-1.12h6.82c2.18,0,3.84-.47,4.97-1.42,1.13-.94,1.7-2.28,1.7-4s-.57-3.09-1.7-4.05-2.79-1.43-4.97-1.43h-6.82l1.03-1.09v13.11Z"/>
      <path d="m567.69,119.14h-2.31v-21.81h2.31v21.81Zm13.86-10.06h-14.11v-2.03h14.11v2.03Zm-.22-11.74h2.27v21.81h-2.27v-21.81Z"/>
      <path d="m593.82,119.14v-21.81h2.31v21.81h-2.31Z"/>
      <path d="m602.86,119.14l9.97-21.81h2.27l9.97,21.81h-2.43l-9.16-20.47h.93l-9.16,20.47h-2.4Zm3.92-5.83l.69-1.87h12.68l.68,1.87h-14.05Z"/>
    </g>
    <path class="cls-2" d="m632.58,108.81c47.14.03,94.92.03,142.9,0"/>
    <path class="cls-2" d="m141.47,108.81c44.48.03,89.37.03,134.34.02"/>
    <circle class="cls-1" cx="60.06" cy="124.88" r="9.72"/>
    <path class="cls-1" d="m120.11,114.08c-7.49-6.63-13.83-12.77-16.59-22.71-1.45-5.21-2.13-10.82-3.28-17.42-1.06-6.03-1.63-12.3-2.85-18.32-.93-4.55-2.25-8.98-4.44-13.09-.75-1.45-1.6-2.86-2.59-4.22-3.41-4.72-8.1-8.48-13.38-11.08-5.28-2.58-11.15-4-16.93-4s-11.64,1.41-16.92,4c-5.28,2.6-9.98,6.36-13.39,11.08-.98,1.36-1.84,2.76-2.58,4.21-2.19,4.11-3.51,8.55-4.43,13.11-1.23,6.03-1.79,12.29-2.85,18.32-1.16,6.6-1.84,12.21-3.29,17.42-2.72,9.75-9.34,16.13-16.59,22.71v10.8h38.28c-2.14-3.57-3.47-7.9-4.5-11.27-.99-3.25-3.83-13.5-1.91-26.94.9-6.34,2.81-13.01,3.57-12.89.67.1-.01,5.34,0,12.49,0,5.15.05,27.95,8.34,38.61h76.34v-10.8Z"/>
  </g>
</svg>